<?xml version="1.0" standalone="no"?>
<!DOCTYPE svg PUBLIC "-//W3C//DTD SVG 20010904//EN"
 "http://www.w3.org/TR/2001/REC-SVG-20010904/DTD/svg10.dtd">
<svg version="1.0" xmlns="http://www.w3.org/2000/svg"
 width="700.000000pt" height="700.000000pt" viewBox="0 0 700.000000 700.000000"
 preserveAspectRatio="xMidYMid meet">
<metadata>
Created by potrace 1.11, written by Peter Selinger 2001-2013
</metadata>
<g transform="translate(0.000000,700.000000) scale(0.100000,-0.100000)"
fill="#000000" stroke="none">
<path d="M3348 6664 c-2 -1 -44 -5 -95 -8 -115 -7 -265 -28 -373 -51 -14 -3
-34 -7 -45 -9 -134 -26 -441 -121 -553 -172 -29 -13 -55 -24 -57 -24 -8 0
-216 -104 -290 -145 -77 -43 -255 -156 -296 -189 -15 -12 -39 -30 -54 -41
-102 -74 -188 -149 -335 -295 -285 -284 -480 -572 -664 -982 -65 -146 -163
-459 -190 -613 -3 -16 -8 -41 -11 -55 -2 -13 -7 -42 -10 -65 -4 -22 -9 -56
-12 -75 -19 -126 -27 -256 -27 -440 0 -157 9 -339 20 -394 2 -10 6 -42 9 -70
10 -84 55 -293 91 -421 180 -630 558 -1197 1064 -1595 36 -28 74 -58 84 -67
11 -9 76 -53 145 -98 289 -190 617 -336 941 -418 130 -33 193 -46 300 -63 19
-3 60 -9 90 -14 170 -29 658 -32 797 -6 10 2 41 7 68 10 404 54 875 221 1199
424 54 34 102 62 106 62 5 0 10 3 12 8 2 4 26 22 53 41 340 233 667 580 888
941 69 114 197 363 197 385 0 7 3 15 8 17 17 7 123 319 161 473 39 157 66 303
76 405 27 264 26 553 -1 765 -5 39 -20 144 -30 197 -4 27 -30 148 -38 178 -2
8 -7 29 -11 45 -18 79 -83 273 -130 390 -145 362 -373 717 -631 985 l-72 74
-1067 -1064 c-586 -586 -1068 -1067 -1072 -1070 -5 -5 24 50 68 125 9 17 26
46 36 65 70 126 88 155 95 158 4 2 8 8 8 13 0 6 44 87 98 182 55 95 114 199
132 232 18 33 36 65 40 70 4 6 19 30 32 55 31 55 472 831 500 880 12 19 37 64
56 100 19 36 41 72 48 81 8 8 14 18 14 22 0 3 13 28 29 55 15 26 39 68 53 93
14 24 83 145 153 268 121 213 127 225 109 238 -16 12 -258 132 -329 164 -109
49 -392 139 -511 163 -10 3 -39 9 -64 15 -25 5 -61 12 -80 16 -19 3 -46 7 -60
10 -46 8 -137 20 -240 31 -61 6 -427 14 -432 8z"/>
</g>
</svg>
